<svg width="15" height="15" viewBox="0 0 15 15" fill="none" xmlns="http://www.w3.org/2000/svg">
<path fill-rule="evenodd" clip-rule="evenodd" d="M4.09091 0.681818C4.09091 0.500989 4.01907 0.327566 3.89121 0.1997C3.76334 0.0718342 3.58992 0 3.40909 0C3.22826 0 3.05484 0.0718342 2.92697 0.1997C2.79911 0.327566 2.72727 0.500989 2.72727 0.681818V1.36364H2.04545C1.50297 1.36364 0.982697 1.57914 0.5991 1.96274C0.215503 2.34633 0 2.8666 0 3.40909V4.09091C0 4.27174 0.0718342 4.44516 0.1997 4.57303C0.327566 4.70089 0.500989 4.77273 0.681818 4.77273H14.3182C14.499 4.77273 14.6724 4.70089 14.8003 4.57303C14.9282 4.44516 15 4.27174 15 4.09091V3.40909C15 2.8666 14.7845 2.34633 14.4009 1.96274C14.0173 1.57914 13.497 1.36364 12.9545 1.36364H12.2727V0.681818C12.2727 0.500989 12.2009 0.327566 12.073 0.1997C11.9452 0.0718342 11.7717 0 11.5909 0C11.4101 0 11.2367 0.0718342 11.1088 0.1997C10.9809 0.327566 10.9091 0.500989 10.9091 0.681818V1.36364H4.09091V0.681818ZM15 6.81818C15 6.63735 14.9282 6.46393 14.8003 6.33606C14.6724 6.2082 14.499 6.13636 14.3182 6.13636H0.681818C0.500989 6.13636 0.327566 6.2082 0.1997 6.33606C0.0718342 6.46393 0 6.63735 0 6.81818V12.9545C0 13.497 0.215503 14.0173 0.5991 14.4009C0.982697 14.7845 1.50297 15 2.04545 15H12.9545C13.497 15 14.0173 14.7845 14.4009 14.4009C14.7845 14.0173 15 13.497 15 12.9545V6.81818Z" fill="currentColor"/>
</svg>
