<svg width="13" height="18" viewBox="0 0 13 18" fill="none" xmlns="http://www.w3.org/2000/svg">
<path d="M6.5 0C2.95592 0 0 2.85133 0 6.49193C0 7.87695 0.416709 9.11199 1.21645 10.2693L6.00257 17.7283C6.23476 18.0909 6.76571 18.0902 6.99743 17.7283L11.8043 10.2439C12.5868 9.13906 13 7.84174 13 6.49193C13 2.91228 10.0841 0 6.5 0ZM6.5 9.4428C4.87094 9.4428 3.54545 8.11896 3.54545 6.49193C3.54545 4.86489 4.87094 3.54105 6.5 3.54105C8.12906 3.54105 9.45455 4.86489 9.45455 6.49193C9.45455 8.11896 8.12906 9.4428 6.5 9.4428Z" fill="currentColor"/>
</svg>
