<svg width="110" height="45" viewBox="0 0 110 45" fill="none" xmlns="http://www.w3.org/2000/svg">
<path d="M43.1835 17.244V19.9921H50.937C50.9703 19.9921 51.2824 20.2944 51.3256 20.3886L51.5219 34.1367C51.3806 34.3664 51.1902 34.4625 50.9291 34.5116C48.2714 35.018 44.2317 35.0671 41.5053 34.9199C33.1316 34.4723 25.5803 30.6055 17.1733 29.8085C16.3312 29.728 15.3478 30.0107 14.6117 29.622C14.4232 29.3512 14.4311 23.7118 14.5155 23.0228C14.5449 22.7853 14.5037 22.6224 14.7196 22.4418C15.0396 22.1748 18.1763 21.4211 18.8417 21.264C23.4133 20.1903 28.0909 19.9725 32.7802 19.9901V17.2421H43.1835V17.244ZM49.0722 21.955L37.4892 22.2494L46.0415 22.9246C46.2947 23.1504 46.4851 23.4075 46.6186 23.7216C47.4764 25.7512 47.653 28.4796 48.6266 30.5544C48.7562 30.8292 48.5069 31.0883 49.0722 30.9843V21.955Z" fill="#045CFB"/>
<path d="M15.9954 6.05356L15.8993 4.48521V4.48325H11.7772V8.70346L0.981277 16.0643H5.88851V29.8046H12.5623V20.579C20.0278 18.6297 22.9999 18.0726 30.7682 17.9605V14.4273V12.5625H43.7723L25.1857 0L15.9954 6.05356Z" fill="#F87000"/>
<path d="M53.9776 34.9101C54.2053 35.1535 52.6291 36.5629 52.3935 36.7592C46.1417 41.9098 36.6609 40.7576 29.3609 38.8202C20.5161 36.4726 14.5509 33.2338 4.79927 33.7226C3.20344 33.8031 1.59387 34.2133 0 34.2231C4.33799 31.7754 9.49451 31.0943 14.4351 31.3671C23.5763 31.8755 31.793 36.5511 41.1246 37.0654C45.2859 37.295 50.3403 37.0458 53.9776 34.9082V34.9101Z" fill="#045CFB"/>
<path d="M41.0245 41.5858C40.3492 42.2237 39.1263 42.5417 38.2313 42.8145C28.4953 45.7824 23.2269 42.6398 14.4803 39.7642C10.1501 38.3411 5.7395 37.7346 1.17773 38.1507C3.33495 37.0063 6.09478 36.3664 8.52877 36.2762C19.1755 35.8816 27.3686 42.5417 37.98 41.9764C38.934 41.9254 40.0489 41.629 41.0245 41.5877V41.5858Z" fill="#045CFB"/>
<path d="M43.1834 14.496H32.7801V16.6552H43.1834V14.496Z" fill="#045CFB"/>
<path d="M61.3433 20V4.79H71.9383V7.195H64.4417V20H61.3433ZM77.4625 20L72.9775 8.82H76.0975L78.8708 16.165L81.5792 8.82H84.6775L79.9108 21.105C79.2175 22.8817 78.2858 24.745 75.4692 24.745C74.7975 24.745 73.9308 24.6367 73.3242 24.3983V21.9717C74.4942 22.34 74.9275 22.405 75.3608 22.405C76.4658 22.405 76.9425 21.4083 77.3108 20.4333L77.4625 20ZM88.7259 18.6567V24.3333H85.6926V12.2C85.6926 10.9217 85.6059 9.535 85.4976 8.84167H88.2709C88.3143 9.145 88.4009 9.795 88.4659 10.4017C89.0726 9.38333 90.4809 8.64667 91.9109 8.64667C94.5976 8.64667 96.4826 11.0517 96.4826 14.4533C96.4826 17.8333 94.5976 20.2167 91.9109 20.2167C90.6759 20.2167 89.3759 19.5667 88.7259 18.6567ZM88.7259 14.15V14.8217C88.7259 16.6633 89.5926 17.8117 90.9793 17.8117C92.4743 17.8117 93.4276 16.5117 93.4276 14.4533C93.4276 12.33 92.4743 11.0083 90.9793 11.0083C89.5926 11.0083 88.7259 12.2217 88.7259 14.15ZM102.007 20L97.5218 8.82H100.642L103.415 16.165L106.123 8.82H109.222L104.455 21.105C103.762 22.8817 102.83 24.745 100.013 24.745C99.3418 24.745 98.4751 24.6367 97.8684 24.3983V21.9717C99.0384 22.34 99.4718 22.405 99.9051 22.405C101.01 22.405 101.487 21.4083 101.855 20.4333L102.007 20Z" fill="black"/>
<path d="M60.6625 33.625C60.6625 30.9875 62.425 29.125 64.925 29.125C66.7125 29.125 68.3125 30.275 68.8125 31.9L67.1625 32.4375C66.9375 31.3375 66 30.5625 64.925 30.5625C63.4875 30.5625 62.475 31.825 62.475 33.625C62.475 35.425 63.4875 36.6875 64.925 36.6875C66.0125 36.6875 66.95 35.8625 67.1625 34.7L68.8 35.2625C68.4 36.9375 66.8 38.1125 64.925 38.1125C62.425 38.1125 60.6625 36.2625 60.6625 33.625ZM69.6779 34.7625C69.6779 32.8125 71.0029 31.4375 72.8904 31.4375C74.7779 31.4375 76.1029 32.8125 76.1029 34.7625V35.2125H71.4654C71.5904 36.15 72.1154 36.7125 72.8904 36.7125C73.5279 36.7125 74.0779 36.35 74.3154 35.7625L75.9404 36.1625C75.5904 37.3 74.4404 38.1 72.8904 38.1C71.0029 38.1 69.6779 36.725 69.6779 34.7625ZM72.8904 32.825C72.2154 32.825 71.7279 33.2625 71.5279 34H74.2654C74.0904 33.275 73.5654 32.825 72.8904 32.825ZM77.0051 31.55H82.7801V38H81.0176V32.8625H78.7676V38H77.0051V31.55ZM83.7651 32.8625V31.55H89.4901V32.8625H87.5151V38H85.7526V32.8625H83.7651Z" fill="black"/>
</svg>
