<svg width="0" height="0" class="hidden">
  <symbol fill="none" xmlns="http://www.w3.org/2000/svg" viewBox="0 0 22 13" id="ic_arr_ver">
    <path d="M11.703 11.7031C11.1368 12.2693 10.2187 12.2693 9.65243 11.7031L0.424686 2.47535C-0.141574 1.90908 -0.141574 0.990995 0.424686 0.424735C0.990947 -0.141524 1.90904 -0.141524 2.4753 0.424735L10.6777 8.62717L18.8802 0.424735C19.4464 -0.141524 20.3645 -0.141524 20.9308 0.424735C21.497 0.990995 21.497 1.90908 20.9308 2.47535L11.703 11.7031ZM10.6777 9.22778H12.1277V10.6778H10.6777H9.22773V9.22778H10.6777Z" fill="currentColor"></path>
  </symbol>
  <symbol fill="none" xmlns="http://www.w3.org/2000/svg" viewBox="0 0 33 15" id="ic_arrow_hor">
    <path d="M32.7071 8.07112C33.0976 7.6806 33.0976 7.04743 32.7071 6.65691L26.3431 0.292946C25.9526 -0.0975785 25.3195 -0.0975785 24.9289 0.292946C24.5384 0.68347 24.5384 1.31664 24.9289 1.70716L30.5858 7.36401L24.9289 13.0209C24.5384 13.4114 24.5384 14.0446 24.9289 14.4351C25.3195 14.8256 25.9526 14.8256 26.3431 14.4351L32.7071 8.07112ZM0 7.36401V8.36401H32V7.36401V6.36401H0V7.36401Z" fill="currentColor"></path>
  </symbol>
  <symbol fill="none" xmlns="http://www.w3.org/2000/svg" viewBox="0 0 15 15" id="ic_calendar">
    <path fill-rule="evenodd" clip-rule="evenodd" d="M4.09091 0.681818C4.09091 0.500989 4.01907 0.327566 3.89121 0.1997C3.76334 0.0718342 3.58992 0 3.40909 0C3.22826 0 3.05484 0.0718342 2.92697 0.1997C2.79911 0.327566 2.72727 0.500989 2.72727 0.681818V1.36364H2.04545C1.50297 1.36364 0.982697 1.57914 0.5991 1.96274C0.215503 2.34633 0 2.8666 0 3.40909V4.09091C0 4.27174 0.0718342 4.44516 0.1997 4.57303C0.327566 4.70089 0.500989 4.77273 0.681818 4.77273H14.3182C14.499 4.77273 14.6724 4.70089 14.8003 4.57303C14.9282 4.44516 15 4.27174 15 4.09091V3.40909C15 2.8666 14.7845 2.34633 14.4009 1.96274C14.0173 1.57914 13.497 1.36364 12.9545 1.36364H12.2727V0.681818C12.2727 0.500989 12.2009 0.327566 12.073 0.1997C11.9452 0.0718342 11.7717 0 11.5909 0C11.4101 0 11.2367 0.0718342 11.1088 0.1997C10.9809 0.327566 10.9091 0.500989 10.9091 0.681818V1.36364H4.09091V0.681818ZM15 6.81818C15 6.63735 14.9282 6.46393 14.8003 6.33606C14.6724 6.2082 14.499 6.13636 14.3182 6.13636H0.681818C0.500989 6.13636 0.327566 6.2082 0.1997 6.33606C0.0718342 6.46393 0 6.63735 0 6.81818V12.9545C0 13.497 0.215503 14.0173 0.5991 14.4009C0.982697 14.7845 1.50297 15 2.04545 15H12.9545C13.497 15 14.0173 14.7845 14.4009 14.4009C14.7845 14.0173 15 13.497 15 12.9545V6.81818Z" fill="currentColor"></path>
  </symbol>
  <symbol fill="none" xmlns="http://www.w3.org/2000/svg" viewBox="0 0 19 17" id="ic_check">
    <path d="M2 10.0002L5.04367 13.2468C6.36383 14.655 8.65101 14.468 9.725 12.8642L17 2.00021" stroke="currentColor" stroke-width="4" stroke-linecap="round"></path>
  </symbol>
  <symbol fill="none" xmlns="http://www.w3.org/2000/svg" viewBox="0 0 15 15" id="ic_close">
    <path d="M0.5 0.5L14.5 14.5M14.5 0.5L0.5 14.5" stroke="currentColor" stroke-linecap="round"></path>
  </symbol>
  <symbol fill="none" xmlns="http://www.w3.org/2000/svg" viewBox="0 0 13 18" id="ic_location">
    <path d="M6.5 0C2.95592 0 0 2.85133 0 6.49193C0 7.87695 0.416709 9.11199 1.21645 10.2693L6.00257 17.7283C6.23476 18.0909 6.76571 18.0902 6.99743 17.7283L11.8043 10.2439C12.5868 9.13906 13 7.84174 13 6.49193C13 2.91228 10.0841 0 6.5 0ZM6.5 9.4428C4.87094 9.4428 3.54545 8.11896 3.54545 6.49193C3.54545 4.86489 4.87094 3.54105 6.5 3.54105C8.12906 3.54105 9.45455 4.86489 9.45455 6.49193C9.45455 8.11896 8.12906 9.4428 6.5 9.4428Z" fill="currentColor"></path>
  </symbol>
  <symbol fill="none" xmlns="http://www.w3.org/2000/svg" viewBox="0 0 39 50" id="ic_move">
    <rect x="15" width="9" height="50" fill="currentColor"></rect>
    <path d="M39 25L30 33.6603L30 16.3397L39 25Z" fill="currentColor"></path>
    <path d="M4.37114e-07 25L9 33.6603L9 16.3397L4.37114e-07 25Z" fill="currentColor"></path>
  </symbol>
  <symbol fill="none" xmlns="http://www.w3.org/2000/svg" viewBox="0 0 18 20" id="ic_video_play">
    <path d="M16.3306 7.66093C17.9436 8.59214 17.9436 10.9202 16.3307 11.8514L3.62904 19.1847C2.01614 20.1159 6.64579e-06 18.9519 6.7272e-06 17.0894L7.3683e-06 2.42288C7.44971e-06 0.560462 2.01614 -0.603555 3.62904 0.327655L16.3306 7.66093Z" fill="currentColor"></path>
  </symbol>
</svg>